<?xml version="1.0" encoding="UTF-8" standalone="no"?>
<!DOCTYPE svg PUBLIC "-//W3C//DTD SVG 1.1//EN" "http://www.w3.org/Graphics/SVG/1.1/DTD/svg11.dtd">
<svg width="100%" height="100%" viewBox="0 0 1254 1254" version="1.1" xmlns="http://www.w3.org/2000/svg" xmlns:xlink="http://www.w3.org/1999/xlink" xml:space="preserve" xmlns:serif="http://www.serif.com/" style="fill-rule:evenodd;clip-rule:evenodd;stroke-linejoin:round;stroke-miterlimit:2;">
    <rect x="0" y="0" width="1254" height="1254" style="fill:white;"/>
    <g transform="matrix(1,-0,0,1,-0.244396,77.001518)">
        <path d="M667.166,251.84C686.78,317.302 705.657,382.575 725.995,447.389C744.586,506.64 764.524,565.474 784.407,624.31C789.081,638.142 788.294,650.072 780.822,662.808C741.685,729.519 714.313,801.029 695.469,875.911C694.291,880.591 693.376,885.338 692.184,890.015C689.209,901.682 682.322,907.076 670.264,907.095C642.103,907.14 613.943,907.127 585.783,907.111C573.525,907.104 566.42,901.279 563.288,889.272C558.208,869.788 553.445,850.2 547.625,830.935C531.825,778.644 511.471,728.213 484.498,680.586C480.396,673.343 476.59,665.927 472.305,658.796C466.597,649.297 465.715,639.621 469.328,629.12C481.463,593.853 494.11,558.737 505.186,523.135C530.562,441.569 555.178,359.767 579.984,278.024C586.605,256.203 592.757,234.239 599.2,212.363C602.946,199.648 613.623,192.713 628.907,192.874C642.188,193.013 652.681,200.855 656.097,213.037C659.692,225.858 663.404,238.647 667.166,251.84M609.874,677.811C646.946,691.892 679.475,659.638 672.939,626.937C669.418,609.321 659.324,596.723 642.047,590.895C624.487,584.971 608.779,589.031 595.608,601.788C571.78,624.867 578.647,662.541 609.874,677.811Z" style="fill:rgb(100,85,195);fill-rule:nonzero;"/>
    </g>
    <g transform="matrix(1,0,0,1,-2.808755,77.001518)">
        <path d="M379.878,399.857C333.507,447.295 287.405,494.5 241.309,541.712C238.515,544.573 235.654,547.38 233.033,550.393C228.804,555.254 229.059,560.966 233.48,565.622C281.322,616.008 329.024,666.528 377.123,716.667C386.304,726.237 390.978,736.562 388.207,749.522C385.579,761.815 377.82,769.823 365.627,773.068C352.941,776.445 341.76,773.278 332.778,763.784C279.073,707.018 225.557,650.073 171.737,593.417C163.813,585.076 157.407,576.273 155.809,564.76C153.636,549.107 158.214,535.712 169.368,524.246C212.355,480.054 255.163,435.686 298.021,391.368C309.95,379.031 321.756,366.574 333.741,354.292C345.445,342.297 367.037,342.079 379.141,353.671C391.904,365.894 392.345,386.03 379.878,399.857Z" style="fill:rgb(27,31,46);fill-rule:nonzero;"/>
    </g>
    <g transform="matrix(1,0,0,1,-2.808755,77.001518)">
        <path d="M949.83,379.163C997.697,428.612 1045.346,477.778 1092.937,527C1108.539,543.137 1107.899,572.788 1092.387,589.033C1052.241,631.078 1012.341,673.357 972.383,715.581C956.811,732.036 941.424,748.667 925.81,765.081C914.35,777.129 893.135,777.387 880.928,765.863C868.166,753.816 867.452,732.703 879.621,719.867C915.265,682.27 951.004,644.764 986.701,607.219C999.787,593.456 1012.869,579.691 1025.935,565.91C1030.929,560.642 1030.858,554.46 1025.666,549.128C994.986,517.619 964.294,486.121 933.579,454.645C915.546,436.166 897.446,417.753 879.412,399.274C867.56,387.13 868.229,365.624 880.764,353.639C893.128,341.819 914.582,342.333 926.429,354.723C934.142,362.789 941.869,370.842 949.83,379.163Z" style="fill:rgb(27,31,46);fill-rule:nonzero;"/>
    </g>
</svg>
